<svg width="313" height="64" viewBox="0 0 313 64" fill="none" xmlns="http://www.w3.org/2000/svg">
<path d="M44.4527 52.9685L2.48595 23.4279C-1.76687 20.4344 -0.32119 14.2017 4.98196 12.736L49.5851 0.382613C50.5299 0.0347118 51.5424 -0.0782213 52.5386 0.0531891C53.5347 0.184599 54.4858 0.556562 55.3129 1.13821C56.14 1.71985 56.8192 2.4944 57.2942 3.39757C57.7691 4.30074 58.0261 5.30648 58.0439 6.33132L55.4005 48.2229C55.087 53.1953 48.7055 55.962 44.4527 52.9685Z" fill="#E9327C"/>
<path d="M31.1422 60.261L6.41831 10.9215C5.85315 9.79279 5.60446 8.5267 5.69964 7.26288C5.79483 5.99907 6.23021 4.78663 6.95776 3.75927C7.68532 2.73192 8.67678 1.92956 9.82281 1.44068C10.9688 0.951803 12.2249 0.7954 13.4525 0.988716L59.2721 8.20499C60.327 8.37115 61.3282 8.79044 62.1933 9.42841C63.0585 10.0664 63.7629 10.9048 64.2486 11.8747C64.7344 12.8446 64.9876 13.9183 64.9874 15.0076C64.9873 16.0968 64.7337 17.1704 64.2477 18.1402L43.1404 60.2634C42.5736 61.3889 41.7137 62.3331 40.6552 62.9923C39.5967 63.6515 38.3806 64.0002 37.1406 63.9999C35.9005 63.9997 34.6845 63.6506 33.6263 62.9909C32.5681 62.3313 31.7085 61.3867 31.1422 60.261V60.261Z" fill="#1DACE3"/>
<path d="M57.9314 7.9929L35.0907 4.39551L7.04736 12.1656L18.2408 34.5115L44.4525 52.9687C45.0308 53.3713 45.6668 53.6797 46.338 53.8829L56.2939 34.0149L57.9314 7.9929Z" fill="#001A49"/>
<path d="M173.625 13.7598C173.625 12.8934 173.877 12.0465 174.349 11.3262C174.82 10.6058 175.491 10.0444 176.275 9.71283C177.06 9.38129 177.923 9.29455 178.755 9.46357C179.588 9.63258 180.353 10.0498 180.953 10.6624C181.554 11.275 181.962 12.0555 182.128 12.9052C182.294 13.7549 182.209 14.6357 181.884 15.4361C181.559 16.2365 181.009 16.9206 180.303 17.4019C179.597 17.8832 178.767 18.1401 177.918 18.1401C176.783 18.1283 175.698 17.663 174.895 16.8441C174.093 16.0252 173.637 14.9179 173.625 13.7598V13.7598ZM174.341 20.2814H181.497V44.6157H174.341V20.2814Z" fill="#001A49"/>
<path d="M212.399 32.449C212.482 34.0575 212.253 35.6668 211.724 37.1845C211.196 38.7022 210.379 40.0983 209.319 41.2925C208.26 42.4867 206.98 43.4555 205.553 44.143C204.125 44.8306 202.579 45.2234 201.002 45.2989C199.676 45.3726 198.35 45.1443 197.121 44.6307C195.892 44.1171 194.79 43.331 193.895 42.3293V54.3509H186.742V20.2819H193.895V22.5687C194.79 21.5674 195.892 20.7818 197.121 20.2686C198.351 19.7554 199.676 19.5276 201.002 19.6015C202.579 19.6767 204.125 20.0692 205.553 20.7565C206.98 21.4438 208.26 22.4124 209.319 23.6064C210.378 24.8004 211.196 26.1963 211.724 27.7139C212.253 29.2314 212.482 30.8407 212.399 32.449ZM205.246 32.449C205.218 31.3097 204.861 30.2041 204.22 29.2707C203.579 28.3372 202.683 27.6174 201.643 27.2012C200.604 26.785 199.467 26.691 198.375 26.9309C197.283 27.1708 196.285 27.734 195.505 28.55C194.725 29.366 194.199 30.3985 193.991 31.5183C193.784 32.6382 193.905 33.7956 194.339 34.8457C194.773 35.8958 195.5 36.792 196.431 37.4221C197.362 38.0523 198.454 38.3883 199.571 38.3882C200.337 38.4234 201.103 38.2928 201.817 38.0047C202.531 37.7167 203.177 37.2778 203.713 36.717C204.249 36.1561 204.663 35.4858 204.927 34.7503C205.191 34.0147 205.3 33.2305 205.246 32.449V32.449Z" fill="#001A49"/>
<path d="M234.48 37.3117C234.48 42.9095 229.71 45.2943 224.559 45.2943C222.478 45.4864 220.388 45.037 218.561 44.0041C216.733 42.9713 215.25 41.4025 214.306 39.5007L220.505 35.9009C220.757 36.78 221.297 37.5441 222.035 38.0655C222.773 38.5869 223.664 38.834 224.559 38.7655C226.276 38.7655 227.132 38.2284 227.132 37.2568C227.132 34.5785 215.401 35.9916 215.401 27.5699C215.401 22.2657 219.787 19.5897 224.758 19.5897C226.622 19.53 228.468 19.9815 230.104 20.8971C231.739 21.8128 233.104 23.1592 234.056 24.796L227.953 28.1547C227.686 27.5159 227.241 26.9715 226.672 26.5895C226.104 26.2074 225.438 26.0046 224.758 26.0063C223.518 26.0063 222.755 26.4837 222.755 27.3693C222.748 30.1623 234.48 28.3123 234.48 37.3117Z" fill="#001A49"/>
<path d="M260.626 20.2817V44.6161H253.472V42.3244C252.646 43.3339 251.597 44.1293 250.411 44.6455C249.225 45.1617 247.937 45.3839 246.651 45.294C241.834 45.294 237.734 41.7897 237.734 35.218V20.2817H244.887V34.1533C244.827 34.7333 244.891 35.3197 245.076 35.8717C245.26 36.4237 245.561 36.928 245.956 37.3495C246.351 37.7711 246.831 38.0996 247.363 38.3124C247.895 38.5251 248.466 38.6169 249.037 38.5814C251.659 38.5814 253.482 37.025 253.482 33.5685V20.2817H260.626Z" fill="#001A49"/>
<path d="M301.629 29.672V44.6154H294.475V30.307C294.475 27.8745 293.329 26.3157 291.041 26.3157C288.655 26.3157 287.322 28.0201 287.322 30.8918V44.6154H280.166V30.307C280.166 27.8745 279.022 26.3157 276.732 26.3157C274.348 26.3157 273.012 28.0201 273.012 30.8918V44.6154H265.859V20.2811H273.024V22.5106C273.765 21.5178 274.739 20.7305 275.855 20.2205C276.972 19.7105 278.195 19.4941 279.415 19.5912C280.639 19.5301 281.859 19.7937 282.954 20.3564C284.049 20.919 284.982 21.7616 285.663 22.8019C286.456 21.7134 287.506 20.848 288.716 20.2865C289.926 19.7249 291.255 19.4857 292.58 19.5912C298.054 19.6007 301.629 23.5896 301.629 29.672Z" fill="#001A49"/>
<path d="M307.69 20.131C310.623 20.131 313 17.7049 313 14.7122C313 11.7195 310.623 9.29346 307.69 9.29346C304.757 9.29346 302.38 11.7195 302.38 14.7122C302.38 17.7049 304.757 20.131 307.69 20.131Z" fill="#001A49"/>
<path d="M75.9558 9.08789H83.1117V44.6154H75.9558V9.08789ZM87.1633 32.4483C87.1554 29.8971 87.8896 27.4009 89.2728 25.2757C90.6561 23.1505 92.6262 21.492 94.9337 20.5101C97.2412 19.5283 99.7824 19.2672 102.235 19.76C104.688 20.2528 106.943 21.4773 108.714 23.2784C110.484 25.0795 111.691 27.3763 112.182 29.8779C112.672 32.3795 112.425 34.9735 111.47 37.3312C110.515 39.689 108.896 41.7047 106.818 43.1229C104.739 44.5411 102.296 45.2982 99.7954 45.2982C98.135 45.3163 96.4876 44.9966 94.9496 44.3578C93.4116 43.7189 92.0137 42.7737 90.8377 41.5774C89.6617 40.3811 88.731 38.9577 88.1001 37.3902C87.4693 35.8228 87.1508 34.1427 87.1633 32.4483V32.4483ZM105.288 32.4483C105.26 31.3478 104.915 30.2802 104.295 29.379C103.675 28.4778 102.809 27.783 101.805 27.3816C100.8 26.9801 99.702 26.8898 98.6475 27.122C97.5929 27.3541 96.6289 27.8984 95.8759 28.6868C95.1229 29.4752 94.6145 30.4726 94.4141 31.5543C94.2138 32.636 94.3304 33.754 94.7495 34.7684C95.1685 35.7828 95.8714 36.6486 96.7702 37.2575C97.6689 37.8664 98.7237 38.1913 99.8025 38.1917C100.541 38.2132 101.276 38.0782 101.961 37.7954C102.646 37.5126 103.267 37.088 103.783 36.5484C104.299 36.0087 104.7 35.3658 104.961 34.6602C105.222 33.9545 105.336 33.2014 105.297 32.4483H105.288ZM140.96 20.274V43.3932C140.96 51.5691 134.712 55.0233 128.37 55.0233C126.137 55.1953 123.902 54.7367 121.908 53.6979C119.914 52.6591 118.239 51.0802 117.066 49.1343L123.17 45.5321C123.662 46.5477 124.447 47.3856 125.419 47.9338C126.391 48.482 127.504 48.7142 128.608 48.5996C129.314 48.6978 130.031 48.6332 130.709 48.4106C131.386 48.188 132.006 47.813 132.522 47.3133C133.039 46.8136 133.439 46.2019 133.692 45.5234C133.946 44.845 134.047 44.117 133.989 43.3932V41.1541C133.151 42.1998 132.084 43.0306 130.875 43.5799C129.666 44.1292 128.347 44.3816 127.025 44.3171C123.877 44.2172 120.891 42.8711 118.699 40.5637C116.507 38.2563 115.281 35.1689 115.281 31.9553C115.281 28.7417 116.507 25.6543 118.699 23.347C120.891 21.0396 123.877 19.6934 127.025 19.5936C128.347 19.5291 129.666 19.7815 130.875 20.3308C132.084 20.8801 133.151 21.7109 133.989 22.7566V20.274H140.96ZM133.998 31.9541C134.045 30.7788 133.747 29.616 133.141 28.6151C132.535 27.6142 131.65 26.8211 130.599 26.3377C129.548 25.8543 128.38 25.7027 127.244 25.9025C126.108 26.1022 125.056 26.6441 124.225 27.4585C123.393 28.273 122.819 29.3226 122.576 30.4726C122.334 31.6226 122.434 32.8204 122.864 33.9118C123.294 35.0033 124.034 35.9386 124.988 36.5975C125.943 37.2564 127.07 37.6087 128.222 37.6092C128.974 37.6632 129.728 37.556 130.437 37.2945C131.146 37.0331 131.793 36.6232 132.337 36.0912C132.881 35.5592 133.309 34.917 133.596 34.2057C133.882 33.4944 134.019 32.7299 133.998 31.9613V31.9541ZM145.011 32.4316C145.004 29.8804 145.738 27.3841 147.121 25.259C148.504 23.1338 150.474 21.4753 152.782 20.4934C155.089 19.5116 157.63 19.2505 160.083 19.7433C162.536 20.2361 164.791 21.4606 166.562 23.2617C168.332 25.0628 169.539 27.3596 170.03 29.8612C170.521 32.3628 170.273 34.9567 169.318 37.3145C168.363 39.6723 166.744 41.6879 164.666 43.1062C162.588 44.5244 160.144 45.2814 157.644 45.2815C155.984 45.2996 154.338 44.9804 152.802 44.3426C151.265 43.7048 149.868 42.7611 148.692 41.5666C147.516 40.372 146.585 38.9506 145.953 37.3851C145.321 35.8196 145.001 34.1413 145.011 32.4483V32.4316ZM163.136 32.4316C163.109 31.3304 162.763 30.262 162.144 29.36C161.524 28.4581 160.657 27.7626 159.652 27.3607C158.647 26.9588 157.548 26.8682 156.493 27.1004C155.438 27.3326 154.473 27.8772 153.72 28.666C152.967 29.4549 152.458 30.4529 152.257 31.5353C152.057 32.6177 152.174 33.7364 152.594 34.7513C153.013 35.7663 153.717 36.6324 154.616 37.2414C155.516 37.8504 156.571 38.1751 157.651 38.175C158.387 38.195 159.12 38.0595 159.802 37.7771C160.485 37.4947 161.104 37.0714 161.619 36.5337C162.134 35.9961 162.534 35.3557 162.795 34.6527C163.056 33.9497 163.173 33.1992 163.136 32.4483V32.4316Z" fill="#001A49"/>
</svg>
